PathFileType	4	(X/Y/Z)	C:/Users/opensim2020/Desktop/walking_exp_matlab/subject01_walking12_straight_01.trc	
DataRate	CameraRate	NumFrames	NumMarkers	Units	OrigDataRate	OrigDataStartFrame	OrigNumFrames	
100.00	100.00	5	44	mm	100.00	691	193	
Frame#	Time	LFHD			RFHD			LBHD			RBHD			C7			T10			CLAV			STRN			RBAK			LSHO			LUPA			LELB			LFRM			LWRA			LWRB			LFIN			RSHO			RUPA			RELB			RFRM			RWRA			RWRB			RFIN			LASI			RASI			LPSI			RPSI			LTHI			LKNE			LTIB			LANK			LHEE			LTOE			RTHI			RKNE			RTIB			RANK			RHEE			RTOE			*39			*40			*41			*42			*43			
		X1	Y1	Z1	X2	Y2	Z2	X3	Y3	Z3	X4	Y4	Z4	X5	Y5	Z5	X6	Y6	Z6	X7	Y7	Z7	X8	Y8	Z8	X9	Y9	Z9	X10	Y10	Z10	X11	Y11	Z11	X12	Y12	Z12	X13	Y13	Z13	X14	Y14	Z14	X15	Y15	Z15	X16	Y16	Z16	X17	Y17	Z17	X18	Y18	Z18	X19	Y19	Z19	X20	Y20	Z20	X21	Y21	Z21	X22	Y22	Z22	X23	Y23	Z23	X24	Y24	Z24	X25	Y25	Z25	X26	Y26	Z26	X27	Y27	Z27	X28	Y28	Z28	X29	Y29	Z29	X30	Y30	Z30	X31	Y31	Z31	X32	Y32	Z32	X33	Y33	Z33	X34	Y34	Z34	X35	Y35	Z35	X36	Y36	Z36	X37	Y37	Z37	X38	Y38	Z38	X39	Y39	Z39	X40	Y40	Z40	X41	Y41	Z41	X42	Y42	Z42	X43	Y43	Z43	X44	Y44	Z44	

73	0.720	-1141.59192	-335.53964	1664.89111	-1028.71948	-330.40744	1675.19592	-1139.42395	-444.68192	1604.46118	-1019.16870	-441.62665	1613.33289	-1088.92957	-468.13589	1423.30920	-1057.51147	-506.68347	1132.13013	-1080.02747	-325.59430	1354.37219	-1072.71375	-283.02606	1199.28882	-996.32050	-526.59625	1235.61536	-1243.76990	-383.53641	1373.09802	-1313.06067	-424.19229	1183.54785	-1296.74609	-449.01620	1037.63306	-1318.51501	-431.54367	926.28729	-1305.15454	-371.23206	799.62457	-1320.41980	-429.61716	803.82532	-1329.86328	-398.71170	724.60742	-932.01416	-392.54620	1392.19165	-814.69214	-449.36194	1202.88623	-796.21759	-441.78824	1077.07751	-767.24268	-384.35367	967.64984	-795.93427	-281.64136	873.82098	-752.00146	-319.37524	865.08173	-752.85272	-260.89102	804.71960	-1152.27588	-327.48752	928.32825	-936.18115	-344.06143	920.07941	-1114.84998	-518.17572	940.45795	-970.33527	-526.20258	940.46143	-1215.77795	-302.32178	608.21643	-1197.51892	-284.79422	475.85098	-1212.75598	-320.91983	288.50302	-1164.91296	-333.17981	69.44714	-1114.54663	-378.98114	38.57562	-1162.21069	-184.21942	35.01790	-873.59283	-418.44293	584.76013	-886.67883	-432.81351	426.11679	-892.90027	-582.84625	331.05746	-942.65820	-731.63989	190.98230	-1001.80981	-778.35767	205.40802	-941.82098	-699.64185	49.16663	-1052.53271	-345.21893	1706.06921	-3101.91748	1973.11304	1023.69659	-3140.62427	2012.60754	1022.06934						 
74	0.730	-1143.16321	-325.55225	1665.91333	-1030.13965	-320.58685	1676.10742	-1141.30420	-434.49234	1605.19714	-1021.17267	-432.01718	1614.12305	-1090.59595	-457.93945	1424.19141	-1059.70227	-496.47495	1133.11658	-1081.34131	-315.31030	1355.36694	-1074.12793	-272.70981	1200.27747	-998.37097	-516.20770	1236.26831	-1245.25427	-372.74423	1374.10498	-1315.28528	-411.79593	1184.56470	-1299.42871	-435.58505	1038.17395	-1321.37317	-416.57089	927.13092	-1307.60339	-354.83063	800.97858	-1323.54102	-412.96198	804.71497	-1332.91455	-380.93497	725.92566	-933.45715	-382.38538	1393.17395	-816.29639	-440.20334	1203.97949	-798.97723	-434.25204	1077.85767	-769.64490	-379.01859	967.42200	-797.77081	-277.78662	871.70380	-754.26721	-315.92038	863.58130	-754.93066	-258.80035	801.92914	-1154.19678	-317.53925	928.96704	-938.02460	-333.72256	921.06964	-1116.31128	-508.30737	941.27887	-971.67035	-516.26611	940.59277	-1217.22864	-295.41852	608.34760	-1198.93420	-279.81860	475.24481	-1213.58203	-318.88431	288.33615	-1165.03064	-333.13275	69.38101	-1114.44592	-378.94409	38.46312	-1162.48657	-183.96794	34.62329	-874.80688	-400.64954	584.33191	-887.91150	-411.69205	426.16946	-893.95691	-563.04028	334.44833	-944.85431	-714.47162	198.66344	-1004.73914	-760.13934	213.87515	-941.52606	-686.72949	55.57211	-1054.65283	-335.63052	1706.78894	-3101.95654	1973.22937	1023.63324	-3140.66821	2012.55957	1021.99133						 
75	0.740	-1144.67566	-315.57870	1666.90039	-1031.64099	-310.96381	1677.22717	-1142.99988	-424.37549	1605.96301	-1022.82990	-422.20441	1614.99109	-1092.11475	-447.75305	1425.34326	-1061.73694	-486.37735	1134.15173	-1082.60669	-305.01410	1356.39014	-1075.33533	-262.51212	1201.19189	-1000.40527	-505.89548	1237.07996	-1246.61377	-361.99280	1375.09668	-1317.36731	-399.35449	1185.54675	-1302.13464	-422.07520	1038.74512	-1324.36218	-401.38431	928.08374	-1310.36646	-337.93976	802.79663	-1326.71045	-396.05502	805.61005	-1336.01782	-362.80344	727.38477	-934.78302	-372.33658	1393.96899	-817.83392	-431.04330	1204.92847	-801.60724	-426.49094	1078.47192	-772.05688	-373.71008	967.00964	-799.81055	-274.19745	869.41235	-756.35486	-312.64279	861.92975	-757.01373	-256.87311	798.96008	-1155.85999	-307.87836	929.56323	-939.61444	-323.34546	922.13568	-1117.68323	-498.90292	941.92389	-972.86993	-506.28751	940.28455	-1218.72058	-288.93369	608.22803	-1200.30005	-275.28070	474.43652	-1214.48389	-316.62442	287.91824	-1165.05371	-332.92282	69.30641	-1114.37598	-378.81024	38.51171	-1162.67603	-183.75061	34.36393	-876.07953	-383.19113	584.89380	-889.23590	-390.66971	426.68582	-895.40009	-543.02893	338.07953	-947.81738	-696.57605	204.97430	-1008.26434	-741.52234	220.47249	-941.26178	-671.44885	62.19595	-1056.15393	-326.06134	1707.86755	-3102.01147	1973.06396	1023.59790	-3140.82324	2012.49768	1021.98511						 
76	0.750	-1145.81262	-305.78696	1667.81372	-1032.91760	-301.28543	1678.33252	-1144.49609	-414.26108	1606.71936	-1024.39368	-412.44284	1615.79565	-1093.49390	-437.32175	1426.45935	-1063.55896	-476.39493	1135.32642	-1083.63062	-294.78781	1357.36780	-1076.52087	-252.43954	1202.07739	-1002.39197	-495.80756	1237.98401	-1247.74939	-351.24286	1376.14087	-1319.32007	-386.88504	1186.52368	-1304.73999	-408.41983	1039.47314	-1327.19666	-386.05734	929.05933	-1312.96155	-320.98898	804.51331	-1329.98145	-378.87827	806.72632	-1339.18140	-344.27502	729.04675	-936.06042	-362.15738	1394.75000	-819.40515	-421.87503	1205.72498	-804.20697	-418.50772	1079.00842	-774.39758	-368.41049	966.58734	-801.55377	-270.71014	866.93677	-758.39313	-309.56192	860.18146	-759.10516	-255.28358	795.88177	-1157.33679	-298.53922	930.11615	-941.21997	-313.23645	923.10364	-1118.70605	-489.06335	942.43549	-974.05420	-496.41913	939.76434	-1219.26343	-283.62039	607.21191	-1201.50171	-271.13361	473.49164	-1215.06335	-313.90250	287.39117	-1165.00610	-332.65002	69.28142	-1114.37292	-378.72452	38.73198	-1162.90210	-183.35754	34.32998	-877.26025	-365.71591	585.91846	-890.64667	-370.03302	428.10532	-897.04492	-522.84497	341.68466	-950.42291	-677.81329	210.83907	-1011.84631	-722.49603	226.00000	-940.90948	-653.82971	68.18682	-1057.34167	-316.46964	1709.23242	-3101.82471	1973.18298	1023.43689	-3140.67822	2012.54553	1022.06439						 
77	0.760	-1147.04700	-295.74713	1668.98840	-1034.00574	-291.68918	1679.46985	-1145.87927	-404.22598	1607.47253	-1025.68152	-402.66702	1616.66553	-1094.65002	-426.69473	1427.43054	-1065.30701	-466.52814	1136.47278	-1084.67529	-284.59906	1358.31091	-1077.47571	-242.42233	1202.88025	-1004.22919	-485.91461	1239.03760	-1248.77722	-340.52185	1377.19116	-1321.13245	-374.40161	1187.56860	-1307.36316	-394.82794	1040.18689	-1330.05078	-370.62009	930.09924	-1315.73999	-303.64001	806.64337	-1333.16394	-361.37152	807.96033	-1342.40515	-325.44382	730.92957	-937.00488	-352.25244	1395.53540	-820.99097	-412.69125	1206.37817	-806.70978	-410.44180	1079.56116	-776.70038	-363.41309	966.02295	-803.44989	-267.38885	864.37714	-760.48907	-306.76611	858.42560	-761.26709	-253.90843	792.75427	-1158.93396	-289.16180	930.50861	-942.52979	-303.06934	924.29877	-1119.70972	-479.56320	942.89032	-975.09222	-487.05014	939.61456	-1221.04614	-277.49503	606.67725	-1202.82959	-267.26422	472.64883	-1215.43201	-310.94638	286.81573	-1164.89514	-332.37759	69.27867	-1114.26843	-378.59003	39.00533	-1163.02856	-182.90167	34.06572	-878.39783	-349.39111	587.53918	-891.92474	-348.81583	430.13220	-899.28632	-501.75238	344.56775	-953.19531	-658.09467	215.92741	-1015.13434	-702.69623	230.09297	-940.93317	-634.47528	73.29125	-1058.46948	-306.75558	1710.14453	-3102.05249	1973.21045	1023.50348	-3140.76709	2012.54724	1022.15411						 
